name C:\Users\u0093377\Documents\Projects\3-Antoinne\AdDB\\GRF\AdDB_Gait_7_GRF.mot
datacolumns 19
datarows 17
range 1.40600000 1.42200000
endheader

                time	     ground_force_vx	     ground_force_vy	     ground_force_vz	     ground_force_px	     ground_force_py	     ground_force_pz	   1_ground_force_vx	   1_ground_force_vy	   1_ground_force_vz	   1_ground_force_px	   1_ground_force_py	   1_ground_force_pz	     ground_torque_x	     ground_torque_y	     ground_torque_z	   1_ground_torque_x	   1_ground_torque_y	   1_ground_torque_z	
          1.40600000	        -29.55872656	        470.23611904	         27.55120827	          0.15644458	          0.00000000	         -0.29040849	          0.00000000	          0.00000000	          0.00000000	          0.00000000	          0.00000000	          0.00000000	          0.00000000	         -1.06027722	          0.00000000	          0.00000000	          0.00000000	          0.00000000	
          1.40700000	        -29.02854254	        468.26985453	         27.42352218	          0.15686303	          0.00000000	         -0.29054562	          0.00000000	          0.00000000	          0.00000000	          0.00000000	          0.00000000	          0.00000000	          0.00000000	         -1.04052615	          0.00000000	          0.00000000	          0.00000000	          0.00000000	
          1.40800000	        -28.50404960	        466.34415111	         27.30033603	          0.15727977	          0.00000000	         -0.29068180	          0.00000000	          0.00000000	          0.00000000	          0.00000000	          0.00000000	          0.00000000	          0.00000000	         -1.02092161	          0.00000000	          0.00000000	          0.00000000	          0.00000000	
          1.40900000	        -27.98517666	        464.45925115	         27.18165104	          0.15769473	          0.00000000	         -0.29081699	          0.00000000	          0.00000000	          0.00000000	          0.00000000	          0.00000000	          0.00000000	          0.00000000	         -1.00147882	          0.00000000	          0.00000000	          0.00000000	          0.00000000	
          1.41000000	        -27.47185695	        462.61537902	         27.06745726	          0.15810779	          0.00000000	         -0.29095115	          0.00000000	          0.00000000	          0.00000000	          0.00000000	          0.00000000	          0.00000000	          0.00000000	         -0.98221191	          0.00000000	          0.00000000	          0.00000000	          0.00000000	
          1.41100000	        -26.96402820	        460.81274359	         26.95773385	          0.15851886	          0.00000000	         -0.29108423	          0.00000000	          0.00000000	          0.00000000	          0.00000000	          0.00000000	          0.00000000	          0.00000000	         -0.96313391	          0.00000000	          0.00000000	          0.00000000	          0.00000000	
          1.41200000	        -26.46163284	        459.05153954	         26.85245008	          0.15892785	          0.00000000	         -0.29121619	          0.00000000	          0.00000000	          0.00000000	          0.00000000	          0.00000000	          0.00000000	          0.00000000	         -0.94425660	          0.00000000	          0.00000000	          0.00000000	          0.00000000	
          1.41300000	        -25.96461762	        457.33194709	         26.75156666	          0.15933466	          0.00000000	         -0.29134699	          0.00000000	          0.00000000	          0.00000000	          0.00000000	          0.00000000	          0.00000000	          0.00000000	         -0.92559028	          0.00000000	          0.00000000	          0.00000000	          0.00000000	
          1.41400000	        -25.47293331	        455.65413162	         26.65503610	          0.15973920	          0.00000000	         -0.29147660	          0.00000000	          0.00000000	          0.00000000	          0.00000000	          0.00000000	          0.00000000	          0.00000000	         -0.90714386	          0.00000000	          0.00000000	          0.00000000	          0.00000000	
          1.41500000	        -24.98653489	        454.01824313	         26.56280258	          0.16014139	          0.00000000	         -0.29160497	          0.00000000	          0.00000000	          0.00000000	          0.00000000	          0.00000000	          0.00000000	          0.00000000	         -0.88892486	          0.00000000	          0.00000000	          0.00000000	          0.00000000	
          1.41600000	        -24.50538127	        452.42441471	         26.47480203	          0.16054112	          0.00000000	         -0.29173205	          0.00000000	          0.00000000	          0.00000000	          0.00000000	          0.00000000	          0.00000000	          0.00000000	         -0.87093937	          0.00000000	          0.00000000	          0.00000000	          0.00000000	
          1.41700000	        -24.02943376	        450.87276074	         26.39096260	          0.16093833	          0.00000000	         -0.29185781	          0.00000000	          0.00000000	          0.00000000	          0.00000000	          0.00000000	          0.00000000	          0.00000000	         -0.85319238	          0.00000000	          0.00000000	          0.00000000	          0.00000000	
          1.41800000	        -23.55865477	        449.36337560	         26.31120512	          0.16133291	          0.00000000	         -0.29198222	          0.00000000	          0.00000000	          0.00000000	          0.00000000	          0.00000000	          0.00000000	          0.00000000	         -0.83568804	          0.00000000	          0.00000000	          0.00000000	          0.00000000	
          1.41900000	        -23.09300798	        447.89633415	         26.23544390	          0.16172481	          0.00000000	         -0.29210522	          0.00000000	          0.00000000	          0.00000000	          0.00000000	          0.00000000	          0.00000000	          0.00000000	         -0.81842974	          0.00000000	          0.00000000	          0.00000000	          0.00000000	
          1.42000000	        -22.63245904	        446.47169329	         26.16358763	          0.16211392	          0.00000000	         -0.29222679	          0.00000000	          0.00000000	          0.00000000	          0.00000000	          0.00000000	          0.00000000	          0.00000000	         -0.80142014	          0.00000000	          0.00000000	          0.00000000	          0.00000000	
          1.42100000	        -22.17697572	        445.08949285	         26.09554008	          0.16250020	          0.00000000	         -0.29234689	          0.00000000	          0.00000000	          0.00000000	          0.00000000	          0.00000000	          0.00000000	          0.00000000	         -0.78466128	          0.00000000	          0.00000000	          0.00000000	          0.00000000	
          1.42200000	        -21.72652828	        443.74975611	         26.03120068	          0.16288355	          0.00000000	         -0.29246547	          0.00000000	          0.00000000	          0.00000000	          0.00000000	          0.00000000	          0.00000000	          0.00000000	         -0.76815448	          0.00000000	          0.00000000	          0.00000000	          0.00000000	
